<svg width="273" height="141" viewBox="0 0 273 141" fill="none" xmlns="http://www.w3.org/2000/svg">
<path d="M26.4557 95.0595C22.5662 95.0595 18.1736 94.7242 13.2782 94.0536C10.5957 93.7183 8.75151 93.0142 7.74559 91.9412C6.73967 90.8682 6.30377 89.1246 6.43789 86.7104C6.90732 80.0713 8.01384 71.8898 9.75743 62.1659C11.501 52.375 13.6135 42.9528 16.0947 33.8995C16.5642 32.223 17.503 31.0494 18.9113 30.3788C20.3196 29.7082 22.1638 29.3729 24.4439 29.3729C28.5346 29.3729 30.58 30.5129 30.58 32.793C30.58 33.7319 30.3788 34.8049 29.9764 36.012C28.2328 41.3769 26.4893 48.586 24.7457 57.6393C23.0021 66.6255 21.7614 75.2094 21.0238 83.3909C23.0356 83.592 25.3157 83.6926 27.864 83.6926C39.5998 83.6926 48.3513 80.1384 54.1185 73.0299C59.9529 65.9214 62.8701 56.4322 62.8701 44.5623C62.8701 36.582 60.59 30.4123 56.0298 26.0534C51.4696 21.6944 45.0317 19.5149 36.7161 19.5149C31.3512 19.5149 26.0198 20.3531 20.722 22.0297C15.4912 23.7062 10.7634 25.9192 6.53849 28.6688C5.66669 29.2723 4.72783 29.5741 3.72191 29.5741C2.58186 29.5741 1.67654 29.1047 1.00592 28.1658C0.335307 27.1599 0 25.9528 0 24.5445C0 22.935 0.268246 21.6273 0.804737 20.6214C1.34123 19.5484 2.24656 18.576 3.52072 17.7042C8.14796 14.5523 13.5799 12.1716 19.8166 10.5622C26.0534 8.88564 32.0554 8.04737 37.8226 8.04737C46.0041 8.04737 53.0791 9.48919 59.0476 12.3728C65.016 15.1894 69.6097 19.3472 72.8287 24.8463C76.0476 30.3453 77.6571 36.9844 77.6571 44.7635C77.6571 54.8898 75.6453 63.7419 71.6216 71.3198C67.5979 78.8307 61.73 84.665 54.018 88.8228C46.3059 92.9806 37.1185 95.0595 26.4557 95.0595Z" fill="white"/>
<path d="M90.5502 95.0595C88.0019 95.0595 86.1912 93.7183 85.1182 91.0359C84.1123 88.3534 83.6093 84.0615 83.6093 78.1601C83.6093 69.4421 84.85 61.16 87.3312 53.3138C87.9348 51.369 88.9072 49.9608 90.2484 49.089C91.6567 48.1501 93.6015 47.6807 96.0827 47.6807C97.424 47.6807 98.3628 47.8483 98.8993 48.1836C99.4358 48.5189 99.7041 49.156 99.7041 50.0949C99.7041 51.1679 99.2011 53.5821 98.1952 57.3375C97.5246 60.02 96.9881 62.3671 96.5857 64.379C96.1833 66.3908 95.848 68.8721 95.5798 71.8228C97.7928 66.0555 100.274 61.3612 103.024 57.7399C105.773 54.1186 108.456 51.5367 111.071 49.9943C113.753 48.4519 116.201 47.6807 118.414 47.6807C122.773 47.6807 124.953 49.8602 124.953 54.2191C124.953 55.0909 124.651 57.2034 124.047 60.5564C123.511 63.2389 123.243 64.9154 123.243 65.5861C123.243 67.9332 124.081 69.1068 125.757 69.1068C127.635 69.1068 130.049 67.6314 133 64.6807C133.872 63.8089 134.777 63.373 135.716 63.373C136.588 63.373 137.258 63.7754 137.728 64.5801C138.264 65.3178 138.533 66.3237 138.533 67.5979C138.533 70.0792 137.862 72.0239 136.521 73.4322C134.643 75.377 132.43 77.0536 129.882 78.4618C127.4 79.8031 124.752 80.4737 121.935 80.4737C118.381 80.4737 115.665 79.5684 113.787 77.7577C111.976 75.947 111.071 73.4993 111.071 70.4145C111.071 69.4086 111.172 68.4026 111.373 67.3967C111.507 66.0555 111.574 65.1502 111.574 64.6807C111.574 63.6077 111.205 63.0713 110.467 63.0713C109.462 63.0713 108.12 64.2113 106.444 66.4914C104.834 68.7044 103.225 71.6551 101.615 75.3435C100.006 79.0319 98.6981 82.9214 97.6922 87.0122C96.9545 90.1641 96.0827 92.31 95.0768 93.4501C94.138 94.523 92.6291 95.0595 90.5502 95.0595Z" fill="white"/>
<path d="M142.363 41.0416C139.546 41.0416 137.434 40.4045 136.026 39.1303C134.617 37.7891 133.913 35.9449 133.913 33.5978C133.913 31.2506 134.819 29.3058 136.629 27.7634C138.507 26.1539 140.821 25.3492 143.57 25.3492C146.051 25.3492 148.063 25.9528 149.606 27.1599C151.148 28.367 151.919 30.077 151.919 32.2901C151.919 34.9725 151.047 37.1185 149.304 38.728C147.56 40.2704 145.247 41.0416 142.363 41.0416ZM141.558 95.0595C137.199 95.0595 134.014 93.5171 132.002 90.4323C130.057 87.3475 129.085 83.2567 129.085 78.1601C129.085 75.1423 129.454 71.2863 130.191 66.592C130.996 61.8306 132.002 57.4046 133.209 53.3138C133.813 51.1679 134.617 49.6925 135.623 48.8878C136.629 48.083 138.239 47.6807 140.452 47.6807C143.872 47.6807 145.582 48.8207 145.582 51.1008C145.582 52.7773 144.945 56.6669 143.671 62.7695C142.061 70.1462 141.256 75.1423 141.256 77.7577C141.256 79.7695 141.525 81.312 142.061 82.3849C142.598 83.4579 143.503 83.9944 144.777 83.9944C145.984 83.9944 147.493 83.1561 149.304 81.4796C151.114 79.8031 153.529 77.1541 156.546 73.5328C157.351 72.594 158.257 72.1245 159.262 72.1245C160.134 72.1245 160.805 72.5269 161.274 73.3316C161.811 74.1364 162.079 75.2429 162.079 76.6512C162.079 79.3336 161.442 81.4125 160.168 82.8879C153.529 91.0023 147.326 95.0595 141.558 95.0595Z" fill="white"/>
<path d="M204.716 63.9766C204.917 63.9095 205.252 63.876 205.722 63.876C206.728 63.876 207.499 64.2113 208.035 64.8819C208.572 65.5525 208.84 66.4579 208.84 67.5979C208.84 69.6768 208.438 71.3198 207.633 72.5269C206.828 73.667 205.621 74.5052 204.012 75.0417C200.927 76.0476 197.641 76.5506 194.154 76.5506C191.203 76.5506 188.42 76.1482 185.805 75.3435C183.86 78.4954 181.714 81.7478 179.367 85.1009C176.684 88.9234 174.371 91.5388 172.426 92.9471C170.481 94.3554 168.268 95.0595 165.787 95.0595C163.037 95.0595 160.858 93.9866 159.248 91.8406C157.706 89.6946 156.734 86.308 156.331 81.6808C155.526 72.2922 155.124 64.0772 155.124 57.0357V53.515C155.191 51.302 155.795 49.7596 156.935 48.8878C158.075 48.016 159.785 47.5801 162.065 47.5801C163.808 47.5801 165.083 47.9824 165.887 48.7872C166.759 49.5248 167.195 50.799 167.195 52.6097C167.195 60.3217 167.665 70.3474 168.603 82.6867C172.627 76.7182 175.645 71.9569 177.657 68.4026C176.651 66.4579 176.148 64.1442 176.148 61.4618C176.148 59.1817 176.651 56.9687 177.657 54.8227C178.663 52.6767 180.037 50.9331 181.781 49.5919C183.525 48.2507 185.503 47.5801 187.716 47.5801C189.661 47.5801 191.237 48.2842 192.444 49.6925C193.651 51.0337 194.254 53.012 194.254 55.6274C194.254 58.6452 193.45 62.0989 191.84 65.9884C194.388 65.8543 197.775 65.3513 202 64.4795L204.716 63.9766Z" fill="white"/>
<path d="M238.235 72.1245C239.107 72.1245 239.778 72.5269 240.247 73.3316C240.783 74.1364 241.052 75.2429 241.052 76.6512C241.052 79.3336 240.415 81.4125 239.14 82.8879C236.257 86.4421 233.105 89.3593 229.685 91.6394C226.332 93.9195 222.509 95.0595 218.217 95.0595C212.316 95.0595 207.923 92.3771 205.04 87.0122C202.223 81.6473 200.815 74.7064 200.815 66.1896C200.815 58.0081 201.854 48.6866 203.933 38.225C206.079 27.7634 209.198 18.7772 213.288 11.2663C217.446 3.75544 222.375 0 228.075 0C231.294 0 233.809 1.50888 235.62 4.52665C237.497 7.47735 238.436 11.7358 238.436 17.3018C238.436 25.2822 236.223 34.5366 231.797 45.0653C227.371 55.5939 221.369 66.022 213.791 76.3494C214.261 79.0989 215.032 81.0772 216.105 82.2843C217.178 83.4244 218.586 83.9944 220.33 83.9944C223.079 83.9944 225.493 83.2232 227.572 81.6808C229.651 80.0713 232.3 77.3553 235.519 73.5328C236.324 72.594 237.229 72.1245 238.235 72.1245ZM225.862 9.95862C224.32 9.95862 222.576 12.7417 220.632 18.3078C218.687 23.8739 216.977 30.7812 215.501 39.0297C214.026 47.2783 213.221 55.1915 213.087 62.7695C217.848 54.9233 221.637 47.0771 224.454 39.2309C227.271 31.3177 228.679 24.1086 228.679 17.6036C228.679 12.507 227.74 9.95862 225.862 9.95862Z" fill="white"/>
<path d="M268.128 47.6807C269.671 47.6807 270.744 47.8818 271.347 48.2842C271.951 48.6866 272.253 49.3572 272.253 50.2961C272.253 51.9055 271.381 57.6393 269.637 67.4973C268.095 76.953 267.189 82.5526 266.921 84.2962C264.44 101.531 261.02 115.178 256.661 125.237C252.302 135.296 246.501 140.326 239.258 140.326C235.838 140.326 233.055 139.253 230.909 137.107C228.763 135.028 227.69 132.279 227.69 128.858C227.69 125.707 228.394 122.488 229.803 119.202C231.278 115.916 233.96 112.127 237.85 107.835C241.807 103.61 247.373 98.7479 254.548 93.2489L254.85 90.9353C255.32 88.454 255.856 84.8997 256.46 80.2725C255.118 85.1009 253.241 88.7893 250.826 91.3376C248.412 93.8189 245.864 95.0595 243.181 95.0595C240.164 95.0595 237.682 93.6848 235.738 90.9353C233.86 88.1187 232.921 84.6315 232.921 80.4737C232.921 75.4441 233.256 70.8504 233.927 66.6926C234.598 62.4677 235.704 58.0081 237.246 53.3138C237.917 51.302 238.856 49.8602 240.063 48.9884C241.27 48.1166 243.181 47.6807 245.797 47.6807C247.272 47.6807 248.278 47.9154 248.815 48.3848C249.418 48.8542 249.72 49.5584 249.72 50.4972C249.72 51.0337 249.351 52.8444 248.613 55.9292C247.943 58.4105 247.406 60.657 247.004 62.6689C246.467 65.4184 245.998 68.0673 245.596 70.6157C245.193 73.0969 244.992 75.1423 244.992 76.7518C244.992 79.3001 245.696 80.5743 247.104 80.5743C248.11 80.5743 249.351 79.5684 250.826 77.5565C252.369 75.5447 253.978 72.4934 255.655 68.4026C257.398 64.3119 259.075 59.2823 260.684 53.3138C261.221 51.302 262.026 49.8602 263.099 48.9884C264.239 48.1166 265.915 47.6807 268.128 47.6807ZM240.365 130.569C242.041 130.569 243.919 128.624 245.998 124.734C248.077 120.845 250.156 114.373 252.235 105.32C247.071 109.679 243.316 113.636 240.968 117.19C238.688 120.811 237.548 123.963 237.548 126.645C237.548 127.786 237.749 128.724 238.152 129.462C238.621 130.2 239.359 130.569 240.365 130.569Z" fill="white"/>
</svg>
