<svg width="130" height="27" viewBox="0 0 130 27" fill="none" xmlns="http://www.w3.org/2000/svg">
<path d="M6.94516 12.3469C6.94516 13.012 6.71582 13.5662 6.25716 14.0096C5.80614 14.4453 5.11431 14.6632 4.18169 14.6632H2.64516V18H1.60169V10.0077H4.18169C5.08374 10.0077 5.76791 10.2256 6.23422 10.6613C6.70818 11.0971 6.94516 11.6589 6.94516 12.3469ZM4.18169 13.8032C4.76267 13.8032 5.19076 13.6771 5.46596 13.4248C5.74116 13.1725 5.87876 12.8132 5.87876 12.3469C5.87876 11.3608 5.31307 10.8677 4.18169 10.8677H2.64516V13.8032H4.18169ZM11.3266 18.1032C10.738 18.1032 10.2029 17.9694 9.72126 17.7019C9.2473 17.4343 8.87272 17.0559 8.59752 16.5667C8.32997 16.0698 8.19619 15.4964 8.19619 14.8467C8.19619 14.2045 8.33379 13.6388 8.60899 13.1496C8.89183 12.6527 9.27406 12.2743 9.75566 12.0144C10.2373 11.7468 10.7762 11.6131 11.3725 11.6131C11.9687 11.6131 12.5077 11.7468 12.9893 12.0144C13.4709 12.2743 13.8493 12.6489 14.1245 13.1381C14.4073 13.6274 14.5487 14.1969 14.5487 14.8467C14.5487 15.4964 14.4035 16.0698 14.113 16.5667C13.8301 17.0559 13.4441 17.4343 12.9549 17.7019C12.4656 17.9694 11.9229 18.1032 11.3266 18.1032ZM11.3266 17.1859C11.7012 17.1859 12.0528 17.098 12.3815 16.9221C12.7102 16.7463 12.974 16.4826 13.1727 16.1309C13.3791 15.7793 13.4823 15.3512 13.4823 14.8467C13.4823 14.3421 13.3829 13.914 13.1842 13.5624C12.9854 13.2108 12.7255 12.9508 12.4045 12.7827C12.0834 12.6068 11.7356 12.5189 11.361 12.5189C10.9788 12.5189 10.6271 12.6068 10.3061 12.7827C9.99263 12.9508 9.74037 13.2108 9.54926 13.5624C9.35814 13.914 9.26259 14.3421 9.26259 14.8467C9.26259 15.3588 9.35432 15.7908 9.53779 16.1424C9.7289 16.494 9.98117 16.7578 10.2946 16.9336C10.608 17.1018 10.952 17.1859 11.3266 17.1859ZM24.6354 11.7163L22.6746 18H21.5967L20.0831 13.012L18.5695 18H17.4916L15.5194 11.7163H16.5858L18.0306 16.9909L19.59 11.7163H20.6564L22.1815 17.0024L23.6034 11.7163H24.6354ZM31.7483 14.6173C31.7483 14.8161 31.7368 15.0263 31.7139 15.248H26.6915C26.7297 15.8672 26.9399 16.3526 27.3221 16.7043C27.712 17.0483 28.1821 17.2203 28.7325 17.2203C29.1836 17.2203 29.5581 17.1171 29.8563 16.9107C30.1621 16.6966 30.3761 16.4138 30.4984 16.0621H31.6221C31.454 16.666 31.1176 17.1591 30.6131 17.5413C30.1085 17.9159 29.4817 18.1032 28.7325 18.1032C28.1363 18.1032 27.6012 17.9694 27.1272 17.7019C26.6609 17.4343 26.294 17.0559 26.0264 16.5667C25.7589 16.0698 25.6251 15.4964 25.6251 14.8467C25.6251 14.1969 25.755 13.6274 26.0149 13.1381C26.2749 12.6489 26.638 12.2743 27.1043 12.0144C27.5782 11.7468 28.121 11.6131 28.7325 11.6131C29.3288 11.6131 29.8563 11.743 30.3149 12.0029C30.7736 12.2628 31.1253 12.6221 31.3699 13.0808C31.6221 13.5318 31.7483 14.044 31.7483 14.6173ZM30.6704 14.3995C30.6704 14.002 30.5825 13.6618 30.4067 13.3789C30.2309 13.0884 29.9901 12.8706 29.6843 12.7253C29.3861 12.5724 29.0536 12.496 28.6867 12.496C28.1592 12.496 27.7082 12.6642 27.3336 13.0005C26.9667 13.3369 26.7565 13.8032 26.7029 14.3995H30.6704ZM34.5131 12.7368C34.6966 12.3775 34.9565 12.0985 35.2928 11.8997C35.6368 11.701 36.0534 11.6016 36.5427 11.6016V12.6795H36.2675C35.0979 12.6795 34.5131 13.314 34.5131 14.5829V18H33.4696V11.7163H34.5131V12.7368ZM43.8246 14.6173C43.8246 14.8161 43.8131 15.0263 43.7902 15.248H38.7678C38.806 15.8672 39.0162 16.3526 39.3984 16.7043C39.7883 17.0483 40.2584 17.2203 40.8088 17.2203C41.2598 17.2203 41.6344 17.1171 41.9326 16.9107C42.2383 16.6966 42.4524 16.4138 42.5747 16.0621H43.6984C43.5302 16.666 43.1939 17.1591 42.6894 17.5413C42.1848 17.9159 41.558 18.1032 40.8088 18.1032C40.2126 18.1032 39.6774 17.9694 39.2035 17.7019C38.7372 17.4343 38.3702 17.0559 38.1027 16.5667C37.8351 16.0698 37.7014 15.4964 37.7014 14.8467C37.7014 14.1969 37.8313 13.6274 38.0912 13.1381C38.3511 12.6489 38.7142 12.2743 39.1806 12.0144C39.6545 11.7468 40.1973 11.6131 40.8088 11.6131C41.4051 11.6131 41.9326 11.743 42.3912 12.0029C42.8499 12.2628 43.2015 12.6221 43.4462 13.0808C43.6984 13.5318 43.8246 14.044 43.8246 14.6173ZM42.7467 14.3995C42.7467 14.002 42.6588 13.6618 42.483 13.3789C42.3071 13.0884 42.0663 12.8706 41.7606 12.7253C41.4624 12.5724 41.1299 12.496 40.763 12.496C40.2355 12.496 39.7845 12.6642 39.4099 13.0005C39.043 13.3369 38.8327 13.8032 38.7792 14.3995H42.7467ZM45.156 14.8352C45.156 14.1931 45.286 13.6312 45.5459 13.1496C45.8058 12.6604 46.1613 12.282 46.6123 12.0144C47.071 11.7468 47.5831 11.6131 48.1488 11.6131C48.6381 11.6131 49.0929 11.7277 49.5134 11.9571C49.9338 12.1788 50.2549 12.4731 50.4766 12.84V9.51467H51.5315V18H50.4766V16.8189C50.2702 17.1935 49.9644 17.5031 49.5592 17.7477C49.1541 17.9847 48.6801 18.1032 48.1374 18.1032C47.5793 18.1032 47.071 17.9656 46.6123 17.6904C46.1613 17.4152 45.8058 17.0292 45.5459 16.5323C45.286 16.0354 45.156 15.4697 45.156 14.8352ZM50.4766 14.8467C50.4766 14.3727 50.381 13.9599 50.1899 13.6083C49.9988 13.2566 49.7389 12.9891 49.4102 12.8056C49.0891 12.6145 48.7336 12.5189 48.3438 12.5189C47.9539 12.5189 47.5984 12.6107 47.2774 12.7941C46.9563 12.9776 46.7002 13.2452 46.5091 13.5968C46.318 13.9484 46.2224 14.3612 46.2224 14.8352C46.2224 15.3168 46.318 15.7372 46.5091 16.0965C46.7002 16.4482 46.9563 16.7196 47.2774 16.9107C47.5984 17.0941 47.9539 17.1859 48.3438 17.1859C48.7336 17.1859 49.0891 17.0941 49.4102 16.9107C49.7389 16.7196 49.9988 16.4482 50.1899 16.0965C50.381 15.7372 50.4766 15.3206 50.4766 14.8467ZM58.0834 12.8859C58.2974 12.5113 58.6108 12.2055 59.0236 11.9685C59.4364 11.7316 59.9066 11.6131 60.434 11.6131C60.9997 11.6131 61.5081 11.7468 61.9591 12.0144C62.4101 12.282 62.7656 12.6604 63.0255 13.1496C63.2854 13.6312 63.4154 14.1931 63.4154 14.8352C63.4154 15.4697 63.2854 16.0354 63.0255 16.5323C62.7656 17.0292 62.4063 17.4152 61.9476 17.6904C61.4966 17.9656 60.9921 18.1032 60.434 18.1032C59.8913 18.1032 59.4135 17.9847 59.0007 17.7477C58.5955 17.5108 58.2898 17.2088 58.0834 16.8419V18H57.0399V9.51467H58.0834V12.8859ZM62.349 14.8352C62.349 14.3612 62.2534 13.9484 62.0623 13.5968C61.8712 13.2452 61.6113 12.9776 61.2826 12.7941C60.9615 12.6107 60.606 12.5189 60.2162 12.5189C59.8339 12.5189 59.4785 12.6145 59.1498 12.8056C58.8287 12.9891 58.5688 13.2604 58.37 13.6197C58.1789 13.9714 58.0834 14.3804 58.0834 14.8467C58.0834 15.3206 58.1789 15.7372 58.37 16.0965C58.5688 16.4482 58.8287 16.7196 59.1498 16.9107C59.4785 17.0941 59.8339 17.1859 60.2162 17.1859C60.606 17.1859 60.9615 17.0941 61.2826 16.9107C61.6113 16.7196 61.8712 16.4482 62.0623 16.0965C62.2534 15.7372 62.349 15.3168 62.349 14.8352ZM70.5451 11.7163L66.7611 20.9584H65.6832L66.9216 17.9312L64.3875 11.7163H65.5456L67.5179 16.8075L69.4672 11.7163H70.5451Z" fill="#A2A2A5"/>
<path d="M83.3155 17.8216C82.5863 17.8216 81.7628 17.7587 80.845 17.633C80.3421 17.5702 79.9963 17.4381 79.8077 17.237C79.6191 17.0358 79.5374 16.7089 79.5626 16.2563C79.6506 15.0116 79.858 13.4778 80.1849 11.6548C80.5118 9.81917 80.9078 8.05273 81.373 6.35543C81.461 6.04112 81.637 5.8211 81.9011 5.69537C82.1651 5.56965 82.5108 5.50678 82.9383 5.50678C83.7052 5.50678 84.0887 5.72052 84.0887 6.14798C84.0887 6.324 84.051 6.52516 83.9755 6.75147C83.6486 7.75727 83.3218 9.10882 82.9949 10.8061C82.668 12.4908 82.4354 14.1001 82.2971 15.634C82.6743 15.6717 83.1017 15.6906 83.5795 15.6906C85.7797 15.6906 87.4204 15.0242 88.5016 13.6915C89.5955 12.3588 90.1424 10.5798 90.1424 8.35447C90.1424 6.85833 89.7149 5.70166 88.86 4.88444C88.005 4.06722 86.7981 3.65862 85.2391 3.65862C84.2333 3.65862 83.2337 3.81577 82.2405 4.13009C81.2599 4.4444 80.3735 4.8593 79.5814 5.37477C79.418 5.48792 79.242 5.5445 79.0534 5.5445C78.8396 5.5445 78.6699 5.45649 78.5442 5.28048C78.4185 5.09189 78.3556 4.86558 78.3556 4.60156C78.3556 4.29982 78.4059 4.05465 78.5065 3.86606C78.607 3.6649 78.7768 3.4826 79.0157 3.31916C79.8832 2.72825 80.9015 2.28192 82.0708 1.98018C83.24 1.66587 84.3653 1.50871 85.4465 1.50871C86.9804 1.50871 88.3068 1.77902 89.4257 2.31964C90.5447 2.84769 91.4059 3.62718 92.0094 4.65813C92.6129 5.68908 92.9146 6.93377 92.9146 8.39219C92.9146 10.2906 92.5374 11.9502 91.7831 13.3709C91.0287 14.779 89.9286 15.8729 88.4828 16.6524C87.0369 17.4319 85.3145 17.8216 83.3155 17.8216Z" fill="#A2A2A5"/>
<path d="M95.3318 17.8216C94.854 17.8216 94.5146 17.5702 94.3134 17.0673C94.1248 16.5644 94.0305 15.7597 94.0305 14.6533C94.0305 13.0189 94.2631 11.4662 94.7283 9.99519C94.8415 9.63058 95.0238 9.36656 95.2752 9.20312C95.5392 9.0271 95.9038 8.93909 96.369 8.93909C96.6205 8.93909 96.7965 8.97052 96.8971 9.03339C96.9977 9.09625 97.0479 9.21569 97.0479 9.3917C97.0479 9.59286 96.9537 10.0455 96.7651 10.7495C96.6393 11.2524 96.5388 11.6925 96.4633 12.0697C96.3879 12.4468 96.325 12.912 96.2747 13.4652C96.6896 12.384 97.1548 11.5039 97.6703 10.825C98.1858 10.1461 98.6887 9.66201 99.179 9.37284C99.6819 9.08368 100.141 8.93909 100.556 8.93909C101.373 8.93909 101.782 9.3477 101.782 10.1649C101.782 10.3284 101.725 10.7244 101.612 11.353C101.511 11.8559 101.461 12.1702 101.461 12.296C101.461 12.736 101.618 12.956 101.932 12.956C102.284 12.956 102.737 12.6794 103.29 12.1262C103.454 11.9628 103.623 11.8811 103.799 11.8811C103.963 11.8811 104.089 11.9565 104.177 12.1074C104.277 12.2457 104.327 12.4343 104.327 12.6731C104.327 13.1383 104.202 13.5029 103.95 13.767C103.598 14.1316 103.183 14.4459 102.706 14.7099C102.24 14.9613 101.744 15.0871 101.216 15.0871C100.549 15.0871 100.04 14.9173 99.6882 14.5779C99.3487 14.2384 99.179 13.7795 99.179 13.2012C99.179 13.0126 99.1979 12.824 99.2356 12.6354C99.2607 12.384 99.2733 12.2142 99.2733 12.1262C99.2733 11.9251 99.2041 11.8245 99.0658 11.8245C98.8773 11.8245 98.6258 12.0382 98.3115 12.4657C98.0097 12.8806 97.708 13.4338 97.4063 14.1253C97.1045 14.8168 96.8594 15.546 96.6708 16.3129C96.5325 16.9038 96.369 17.3061 96.1804 17.5199C96.0044 17.721 95.7215 17.8216 95.3318 17.8216Z" fill="#A2A2A5"/>
<path d="M105.046 7.69441C104.518 7.69441 104.121 7.57497 103.857 7.33609C103.593 7.08464 103.461 6.73889 103.461 6.29885C103.461 5.85881 103.631 5.49421 103.971 5.20504C104.323 4.9033 104.756 4.75243 105.272 4.75243C105.737 4.75243 106.114 4.86558 106.403 5.09189C106.693 5.31819 106.837 5.63879 106.837 6.05369C106.837 6.55659 106.674 6.95891 106.347 7.26065C106.02 7.54982 105.586 7.69441 105.046 7.69441ZM104.895 17.8216C104.077 17.8216 103.48 17.5324 103.103 16.9541C102.739 16.3758 102.556 15.6088 102.556 14.6533C102.556 14.0876 102.625 13.3646 102.764 12.4846C102.915 11.5919 103.103 10.7621 103.329 9.99519C103.443 9.59286 103.593 9.31627 103.782 9.1654C103.971 9.01453 104.272 8.93909 104.687 8.93909C105.328 8.93909 105.649 9.15283 105.649 9.58029C105.649 9.89461 105.53 10.6238 105.291 11.7679C104.989 13.1509 104.838 14.0876 104.838 14.5779C104.838 14.9551 104.888 15.2442 104.989 15.4454C105.09 15.6466 105.259 15.7471 105.498 15.7471C105.724 15.7471 106.007 15.59 106.347 15.2757C106.686 14.9613 107.139 14.4647 107.705 13.7858C107.856 13.6098 108.025 13.5218 108.214 13.5218C108.377 13.5218 108.503 13.5972 108.591 13.7481C108.692 13.899 108.742 14.1064 108.742 14.3704C108.742 14.8733 108.622 15.2631 108.384 15.5397C107.139 17.061 105.976 17.8216 104.895 17.8216Z" fill="#A2A2A5"/>
<path d="M116.735 11.9942C116.773 11.9817 116.836 11.9754 116.924 11.9754C117.113 11.9754 117.257 12.0382 117.358 12.164C117.458 12.2897 117.509 12.4594 117.509 12.6731C117.509 13.0629 117.433 13.3709 117.282 13.5972C117.131 13.811 116.905 13.9681 116.603 14.0687C116.025 14.2573 115.409 14.3516 114.755 14.3516C114.202 14.3516 113.68 14.2761 113.19 14.1253C112.825 14.7162 112.423 15.326 111.983 15.9546C111.48 16.6712 111.046 17.1615 110.682 17.4256C110.317 17.6896 109.902 17.8216 109.437 17.8216C108.922 17.8216 108.513 17.6204 108.211 17.2181C107.922 16.8158 107.74 16.1809 107.664 15.3134C107.513 13.5532 107.438 12.0131 107.438 10.693V10.0329C107.451 9.61801 107.564 9.32884 107.777 9.1654C107.991 9.00195 108.312 8.92023 108.739 8.92023C109.066 8.92023 109.305 8.99567 109.456 9.14654C109.619 9.28484 109.701 9.52372 109.701 9.86317C109.701 11.309 109.789 13.1886 109.965 15.502C110.719 14.383 111.285 13.4904 111.662 12.824C111.474 12.4594 111.379 12.0257 111.379 11.5228C111.379 11.0953 111.474 10.6804 111.662 10.2781C111.851 9.87575 112.109 9.54886 112.436 9.29741C112.762 9.04596 113.133 8.92023 113.548 8.92023C113.913 8.92023 114.208 9.05225 114.435 9.31627C114.661 9.56772 114.774 9.93861 114.774 10.4289C114.774 10.9947 114.623 11.6422 114.321 12.3714C114.799 12.3463 115.434 12.252 116.226 12.0885L116.735 11.9942Z" fill="#A2A2A5"/>
<path d="M123.02 13.5218C123.183 13.5218 123.309 13.5972 123.397 13.7481C123.497 13.899 123.548 14.1064 123.548 14.3704C123.548 14.8733 123.428 15.2631 123.189 15.5397C122.649 16.206 122.058 16.7529 121.417 17.1804C120.788 17.6079 120.071 17.8216 119.267 17.8216C118.16 17.8216 117.337 17.3187 116.796 16.3129C116.268 15.3071 116.004 14.0058 116.004 12.4091C116.004 10.8753 116.199 9.12768 116.589 7.16636C116.991 5.20504 117.576 3.52032 118.343 2.11219C119.122 0.704063 120.046 0 121.115 0C121.718 0 122.19 0.282883 122.529 0.848648C122.881 1.40184 123.057 2.2002 123.057 3.24372C123.057 4.73986 122.642 6.47487 121.813 8.44876C120.983 10.4227 119.858 12.3777 118.437 14.3139C118.525 14.8293 118.669 15.2002 118.871 15.4265C119.072 15.6403 119.336 15.7471 119.663 15.7471C120.178 15.7471 120.631 15.6025 121.02 15.3134C121.41 15.0116 121.907 14.5024 122.51 13.7858C122.661 13.6098 122.831 13.5218 123.02 13.5218ZM120.7 1.86703C120.411 1.86703 120.084 2.38879 119.719 3.43231C119.355 4.47583 119.034 5.77081 118.757 7.31723C118.481 8.86366 118.33 10.3472 118.305 11.7679C119.197 10.2969 119.908 8.82594 120.436 7.35495C120.964 5.87139 121.228 4.51984 121.228 3.3003C121.228 2.34478 121.052 1.86703 120.7 1.86703Z" fill="#A2A2A5"/>
<path d="M128.624 8.93909C128.913 8.93909 129.114 8.97681 129.227 9.05225C129.34 9.12768 129.397 9.25341 129.397 9.42942C129.397 9.73116 129.234 10.8061 128.907 12.6543C128.618 14.427 128.448 15.4768 128.398 15.8037C127.932 19.0349 127.291 21.5934 126.474 23.4793C125.657 25.3651 124.569 26.3081 123.211 26.3081C122.57 26.3081 122.048 26.1069 121.646 25.7046C121.244 25.3149 121.043 24.7994 121.043 24.1582C121.043 23.5673 121.175 22.9638 121.439 22.3477C121.715 21.7317 122.218 21.0213 122.947 20.2167C123.689 19.4246 124.733 18.5131 126.078 17.4821L126.134 17.0484C126.222 16.5832 126.323 15.9169 126.436 15.0494C126.185 15.9546 125.833 16.6461 125.38 17.1238C124.928 17.589 124.45 17.8216 123.947 17.8216C123.381 17.8216 122.916 17.5639 122.551 17.0484C122.199 16.5203 122.023 15.8666 122.023 15.0871C122.023 14.1441 122.086 13.2829 122.212 12.5034C122.338 11.7113 122.545 10.8753 122.834 9.99519C122.96 9.61801 123.136 9.3477 123.362 9.18426C123.589 9.02081 123.947 8.93909 124.437 8.93909C124.714 8.93909 124.902 8.9831 125.003 9.0711C125.116 9.15911 125.173 9.29112 125.173 9.46714C125.173 9.56772 125.104 9.90718 124.965 10.4855C124.839 10.9507 124.739 11.3719 124.663 11.7491C124.563 12.2645 124.475 12.7612 124.399 13.2389C124.324 13.7041 124.286 14.0876 124.286 14.3893C124.286 14.8671 124.418 15.1059 124.682 15.1059C124.871 15.1059 125.104 14.9173 125.38 14.5402C125.669 14.163 125.971 13.5909 126.285 12.824C126.612 12.0571 126.927 11.1141 127.228 9.99519C127.329 9.61801 127.48 9.3477 127.681 9.18426C127.895 9.02081 128.209 8.93909 128.624 8.93909ZM123.419 24.4788C123.733 24.4788 124.085 24.1142 124.475 23.385C124.865 22.6558 125.254 21.4425 125.644 19.7452C124.676 20.5624 123.972 21.3042 123.532 21.9706C123.104 22.6495 122.891 23.2404 122.891 23.7433C122.891 23.957 122.928 24.133 123.004 24.2713C123.092 24.4096 123.23 24.4788 123.419 24.4788Z" fill="#A2A2A5"/>
</svg>
